<?xml version="1.0" encoding="UTF-8" standalone="no"?>
<!DOCTYPE svg PUBLIC "-//W3C//DTD SVG 1.1//EN"
 "http://www.w3.org/Graphics/SVG/1.1/DTD/svg11.dtd">
<!-- Generated by graphviz version 2.43.0 (0)
 -->
<!-- Title: main.cpp Pages: 1 -->
<svg width="986pt" height="628pt"
 viewBox="0.00 0.00 985.50 628.00" xmlns="http://www.w3.org/2000/svg" xmlns:xlink="http://www.w3.org/1999/xlink">
<g id="graph0" class="graph" transform="scale(1 1) rotate(0) translate(4 624)">
<title>main.cpp</title>
<polygon fill="white" stroke="transparent" points="-4,4 -4,-624 981.5,-624 981.5,4 -4,4"/>
<!-- Node1 -->
<g id="node1" class="node">
<title>Node1</title>
<polygon fill="none" stroke="black" points="554.5,-620 486.5,-620 486.5,-584 554.5,-584 554.5,-620"/>
<text text-anchor="middle" x="520.5" y="-598.3" font-family="Times,serif" font-size="14.00">main.cpp</text>
</g>
<!-- Node2 -->
<g id="node2" class="node">
<title>Node2</title>
<polygon fill="none" stroke="black" points="194.5,-547 130.5,-547 130.5,-511 194.5,-511 194.5,-547"/>
<text text-anchor="middle" x="162.5" y="-525.3" font-family="Times,serif" font-size="14.00">iostream</text>
</g>
<!-- Node1&#45;&gt;Node2 -->
<g id="edge1" class="edge">
<title>Node1&#45;&gt;Node2</title>
<path fill="none" stroke="black" d="M486.09,-598.07C428.93,-592.59 310.94,-578.73 204.5,-547.93"/>
<polygon fill="black" stroke="black" points="205.48,-544.57 194.9,-545.09 203.5,-551.28 205.48,-544.57"/>
</g>
<!-- Node3 -->
<g id="node3" class="node">
<title>Node3</title>
<polygon fill="none" stroke="black" points="320,-548 213,-548 213,-510 320,-510 320,-548"/>
<text text-anchor="start" x="221" y="-532.8" font-family="Times,serif" font-size="14.00">antlr4&#45;runtime/</text>
<text text-anchor="middle" x="266.5" y="-517.8" font-family="Times,serif" font-size="14.00">antlr4&#45;runtime.h</text>
</g>
<!-- Node1&#45;&gt;Node3 -->
<g id="edge2" class="edge">
<title>Node1&#45;&gt;Node3</title>
<path fill="none" stroke="black" d="M486.47,-591.75C450.02,-581.81 390.2,-565.41 329.93,-548.39"/>
<polygon fill="black" stroke="black" points="330.83,-545.01 320.26,-545.65 328.93,-551.74 330.83,-545.01"/>
</g>
<!-- Node4 -->
<g id="node4" class="node">
<title>Node4</title>
<polygon fill="none" stroke="black" points="413,-547 338,-547 338,-511 413,-511 413,-547"/>
<text text-anchor="middle" x="375.5" y="-525.3" font-family="Times,serif" font-size="14.00">GoLexer.h</text>
</g>
<!-- Node1&#45;&gt;Node4 -->
<g id="edge3" class="edge">
<title>Node1&#45;&gt;Node4</title>
<path fill="none" stroke="black" d="M486.14,-584.17C466.22,-574.42 440.94,-562.04 419.57,-551.58"/>
<polygon fill="black" stroke="black" points="420.89,-548.33 410.37,-547.07 417.81,-554.62 420.89,-548.33"/>
</g>
<!-- Node5 -->
<g id="node5" class="node">
<title>Node5</title>
<polygon fill="none" stroke="black" points="508,-547 431,-547 431,-511 508,-511 508,-547"/>
<text text-anchor="middle" x="469.5" y="-525.3" font-family="Times,serif" font-size="14.00">GoParser.h</text>
</g>
<!-- Node1&#45;&gt;Node5 -->
<g id="edge4" class="edge">
<title>Node1&#45;&gt;Node5</title>
<path fill="none" stroke="black" d="M508.15,-583.81C502.02,-575.27 494.48,-564.77 487.69,-555.32"/>
<polygon fill="black" stroke="black" points="490.41,-553.11 481.73,-547.03 484.72,-557.19 490.41,-553.11"/>
</g>
<!-- Node6 -->
<g id="node6" class="node">
<title>Node6</title>
<polygon fill="none" stroke="black" points="619,-548 526,-548 526,-510 619,-510 619,-548"/>
<text text-anchor="start" x="534" y="-532.8" font-family="Times,serif" font-size="14.00">GoParserBase</text>
<text text-anchor="middle" x="572.5" y="-517.8" font-family="Times,serif" font-size="14.00">Visitor.h</text>
</g>
<!-- Node1&#45;&gt;Node6 -->
<g id="edge5" class="edge">
<title>Node1&#45;&gt;Node6</title>
<path fill="none" stroke="black" d="M533.09,-583.81C539.16,-575.52 546.58,-565.39 553.34,-556.16"/>
<polygon fill="black" stroke="black" points="556.22,-558.16 559.3,-548.02 550.57,-554.02 556.22,-558.16"/>
</g>
<!-- Node7 -->
<g id="node7" class="node">
<title>Node7</title>
<polygon fill="none" stroke="black" points="735.5,-547 637.5,-547 637.5,-511 735.5,-511 735.5,-547"/>
<text text-anchor="middle" x="686.5" y="-525.3" font-family="Times,serif" font-size="14.00">ParserVisitor.h</text>
</g>
<!-- Node1&#45;&gt;Node7 -->
<g id="edge6" class="edge">
<title>Node1&#45;&gt;Node7</title>
<path fill="none" stroke="black" d="M554.9,-586.29C578.66,-576.12 610.64,-562.45 637.12,-551.12"/>
<polygon fill="black" stroke="black" points="638.78,-554.22 646.6,-547.06 636.03,-547.78 638.78,-554.22"/>
</g>
<!-- Node33 -->
<g id="node33" class="node">
<title>Node33</title>
<polygon fill="none" stroke="black" points="831,-548 754,-548 754,-510 831,-510 831,-548"/>
<text text-anchor="start" x="762" y="-532.8" font-family="Times,serif" font-size="14.00">boost/uuid/</text>
<text text-anchor="middle" x="792.5" y="-517.8" font-family="Times,serif" font-size="14.00">uuid.hpp</text>
</g>
<!-- Node1&#45;&gt;Node33 -->
<g id="edge43" class="edge">
<title>Node1&#45;&gt;Node33</title>
<path fill="none" stroke="black" d="M554.63,-594.33C596.96,-585.75 671.42,-569.66 744.1,-547.93"/>
<polygon fill="black" stroke="black" points="745.32,-551.21 753.87,-544.96 743.29,-544.51 745.32,-551.21"/>
</g>
<!-- Node34 -->
<g id="node34" class="node">
<title>Node34</title>
<polygon fill="none" stroke="black" points="977.5,-548 849.5,-548 849.5,-510 977.5,-510 977.5,-548"/>
<text text-anchor="start" x="857.5" y="-532.8" font-family="Times,serif" font-size="14.00">boost/uuid/</text>
<text text-anchor="middle" x="913.5" y="-517.8" font-family="Times,serif" font-size="14.00">uuid_generators.hpp</text>
</g>
<!-- Node1&#45;&gt;Node34 -->
<g id="edge44" class="edge">
<title>Node1&#45;&gt;Node34</title>
<path fill="none" stroke="black" d="M554.76,-596.22C611.77,-588.07 729.9,-570.36 839.56,-548.11"/>
<polygon fill="black" stroke="black" points="840.37,-551.52 849.47,-546.09 838.97,-544.66 840.37,-551.52"/>
</g>
<!-- Node8 -->
<g id="node8" class="node">
<title>Node8</title>
<polygon fill="none" stroke="black" points="689.5,-474 549.5,-474 549.5,-438 689.5,-438 689.5,-474"/>
<text text-anchor="middle" x="619.5" y="-452.3" font-family="Times,serif" font-size="14.00">GoParserBaseVisitor.h</text>
</g>
<!-- Node7&#45;&gt;Node8 -->
<g id="edge7" class="edge">
<title>Node7&#45;&gt;Node8</title>
<path fill="none" stroke="black" d="M670.28,-510.81C661.97,-502 651.7,-491.13 642.58,-481.46"/>
<polygon fill="black" stroke="black" points="644.98,-478.9 635.57,-474.03 639.89,-483.7 644.98,-478.9"/>
</g>
<!-- Node9 -->
<g id="node9" class="node">
<title>Node9</title>
<polygon fill="none" stroke="black" points="799.5,-474 707.5,-474 707.5,-438 799.5,-438 799.5,-474"/>
<text text-anchor="middle" x="753.5" y="-452.3" font-family="Times,serif" font-size="14.00">GoIrBuilder.h</text>
</g>
<!-- Node7&#45;&gt;Node9 -->
<g id="edge8" class="edge">
<title>Node7&#45;&gt;Node9</title>
<path fill="none" stroke="black" d="M702.72,-510.81C711.03,-502 721.3,-491.13 730.42,-481.46"/>
<polygon fill="black" stroke="black" points="733.11,-483.7 737.43,-474.03 728.02,-478.9 733.11,-483.7"/>
</g>
<!-- Node10 -->
<g id="node10" class="node">
<title>Node10</title>
<polygon fill="none" stroke="black" points="831.5,-402 777.5,-402 777.5,-366 831.5,-366 831.5,-402"/>
<text text-anchor="middle" x="804.5" y="-380.3" font-family="Times,serif" font-size="14.00">utility</text>
</g>
<!-- Node9&#45;&gt;Node10 -->
<g id="edge9" class="edge">
<title>Node9&#45;&gt;Node10</title>
<path fill="none" stroke="black" d="M766.11,-437.7C772.1,-429.47 779.38,-419.48 785.98,-410.42"/>
<polygon fill="black" stroke="black" points="788.98,-412.25 792.04,-402.1 783.32,-408.13 788.98,-412.25"/>
</g>
<!-- Node11 -->
<g id="node11" class="node">
<title>Node11</title>
<polygon fill="none" stroke="black" points="306.5,-402 236.5,-402 236.5,-366 306.5,-366 306.5,-402"/>
<text text-anchor="middle" x="271.5" y="-380.3" font-family="Times,serif" font-size="14.00">Context.h</text>
</g>
<!-- Node9&#45;&gt;Node11 -->
<g id="edge10" class="edge">
<title>Node9&#45;&gt;Node11</title>
<path fill="none" stroke="black" d="M707.44,-440.12C704.43,-439.35 701.43,-438.63 698.5,-438 561.15,-408.49 395.17,-393.74 316.74,-387.98"/>
<polygon fill="black" stroke="black" points="316.95,-384.49 306.72,-387.26 316.44,-391.47 316.95,-384.49"/>
</g>
<!-- Node23 -->
<g id="node23" class="node">
<title>Node23</title>
<polygon fill="none" stroke="black" points="732.5,-110 676.5,-110 676.5,-74 732.5,-74 732.5,-110"/>
<text text-anchor="middle" x="704.5" y="-88.3" font-family="Times,serif" font-size="14.00">Error.h</text>
</g>
<!-- Node9&#45;&gt;Node23 -->
<g id="edge37" class="edge">
<title>Node9&#45;&gt;Node23</title>
<path fill="none" stroke="black" d="M796.05,-437.97C812.26,-429.46 829.47,-417.59 840.5,-402 864.12,-368.63 859.5,-352.88 859.5,-312 859.5,-312 859.5,-312 859.5,-237 859.5,-173.05 787.8,-129.47 741.93,-108.14"/>
<polygon fill="black" stroke="black" points="743.12,-104.84 732.57,-103.93 740.25,-111.23 743.12,-104.84"/>
</g>
<!-- Node30 -->
<g id="node30" class="node">
<title>Node30</title>
<polygon fill="none" stroke="black" points="759.5,-402 645.5,-402 645.5,-366 759.5,-366 759.5,-402"/>
<text text-anchor="middle" x="702.5" y="-380.3" font-family="Times,serif" font-size="14.00">GoParserVisitor.h</text>
</g>
<!-- Node9&#45;&gt;Node30 -->
<g id="edge38" class="edge">
<title>Node9&#45;&gt;Node30</title>
<path fill="none" stroke="black" d="M740.89,-437.7C734.9,-429.47 727.62,-419.48 721.02,-410.42"/>
<polygon fill="black" stroke="black" points="723.68,-408.13 714.96,-402.1 718.02,-412.25 723.68,-408.13"/>
</g>
<!-- Node12 -->
<g id="node12" class="node">
<title>Node12</title>
<polygon fill="none" stroke="black" points="170.5,-37 116.5,-37 116.5,-1 170.5,-1 170.5,-37"/>
<text text-anchor="middle" x="143.5" y="-15.3" font-family="Times,serif" font-size="14.00">vector</text>
</g>
<!-- Node11&#45;&gt;Node12 -->
<g id="edge11" class="edge">
<title>Node11&#45;&gt;Node12</title>
<path fill="none" stroke="black" d="M236.36,-379.96C202.64,-375.12 152.79,-362.56 124.5,-330 97.4,-298.81 105.5,-280.32 105.5,-239 105.5,-239 105.5,-239 105.5,-164 105.5,-121.91 120.87,-75.11 132.06,-46.62"/>
<polygon fill="black" stroke="black" points="135.31,-47.93 135.81,-37.34 128.82,-45.3 135.31,-47.93"/>
</g>
<!-- Node13 -->
<g id="node13" class="node">
<title>Node13</title>
<polygon fill="none" stroke="black" points="223,-330 134,-330 134,-292 223,-292 223,-330"/>
<text text-anchor="start" x="142" y="-314.8" font-family="Times,serif" font-size="14.00">llvm/IR/</text>
<text text-anchor="middle" x="178.5" y="-299.8" font-family="Times,serif" font-size="14.00">BasicBlock.h</text>
</g>
<!-- Node11&#45;&gt;Node13 -->
<g id="edge12" class="edge">
<title>Node11&#45;&gt;Node13</title>
<path fill="none" stroke="black" d="M248.99,-365.81C237.35,-356.93 222.94,-345.93 210.19,-336.2"/>
<polygon fill="black" stroke="black" points="212.18,-333.31 202.1,-330.02 207.93,-338.87 212.18,-333.31"/>
</g>
<!-- Node14 -->
<g id="node14" class="node">
<title>Node14</title>
<polygon fill="none" stroke="black" points="314.5,-37 260.5,-37 260.5,-1 314.5,-1 314.5,-37"/>
<text text-anchor="middle" x="287.5" y="-15.3" font-family="Times,serif" font-size="14.00">map</text>
</g>
<!-- Node11&#45;&gt;Node14 -->
<g id="edge13" class="edge">
<title>Node11&#45;&gt;Node14</title>
<path fill="none" stroke="black" d="M264.41,-365.74C241.37,-308.51 171.73,-125.71 200.5,-74 211.24,-54.69 232.07,-41.39 250.66,-32.83"/>
<polygon fill="black" stroke="black" points="252.29,-35.94 260.1,-28.78 249.53,-29.51 252.29,-35.94"/>
</g>
<!-- Node15 -->
<g id="node15" class="node">
<title>Node15</title>
<polygon fill="none" stroke="black" points="375,-183 270,-183 270,-147 375,-147 375,-183"/>
<text text-anchor="middle" x="322.5" y="-161.3" font-family="Times,serif" font-size="14.00">ValueWrapper.h</text>
</g>
<!-- Node11&#45;&gt;Node15 -->
<g id="edge14" class="edge">
<title>Node11&#45;&gt;Node15</title>
<path fill="none" stroke="black" d="M275.5,-365.97C284.31,-328.51 305.42,-238.68 316.09,-193.26"/>
<polygon fill="black" stroke="black" points="319.57,-193.78 318.45,-183.25 312.75,-192.18 319.57,-193.78"/>
</g>
<!-- Node26 -->
<g id="node26" class="node">
<title>Node26</title>
<polygon fill="none" stroke="black" points="491.5,-256 369.5,-256 369.5,-220 491.5,-220 491.5,-256"/>
<text text-anchor="middle" x="430.5" y="-234.3" font-family="Times,serif" font-size="14.00">FunctionWrapper.h</text>
</g>
<!-- Node11&#45;&gt;Node26 -->
<g id="edge27" class="edge">
<title>Node11&#45;&gt;Node26</title>
<path fill="none" stroke="black" d="M290.36,-365.92C318.57,-340.37 371.86,-292.1 403.98,-263.02"/>
<polygon fill="black" stroke="black" points="406.6,-265.37 411.66,-256.06 401.9,-260.18 406.6,-265.37"/>
</g>
<!-- Node28 -->
<g id="node28" class="node">
<title>Node28</title>
<polygon fill="none" stroke="black" points="77,-329 0,-329 0,-293 77,-293 77,-329"/>
<text text-anchor="middle" x="38.5" y="-307.3" font-family="Times,serif" font-size="14.00">GoParser.h</text>
</g>
<!-- Node11&#45;&gt;Node28 -->
<g id="edge32" class="edge">
<title>Node11&#45;&gt;Node28</title>
<path fill="none" stroke="black" d="M236.19,-373.07C199.8,-362.72 141.5,-345.84 91.5,-330 90.05,-329.54 88.58,-329.07 87.1,-328.59"/>
<polygon fill="black" stroke="black" points="87.82,-325.15 77.23,-325.36 85.64,-331.8 87.82,-325.15"/>
</g>
<!-- Node29 -->
<g id="node29" class="node">
<title>Node29</title>
<polygon fill="none" stroke="black" points="466.5,-329 394.5,-329 394.5,-293 466.5,-293 466.5,-329"/>
<text text-anchor="middle" x="430.5" y="-307.3" font-family="Times,serif" font-size="14.00">Package.h</text>
</g>
<!-- Node11&#45;&gt;Node29 -->
<g id="edge33" class="edge">
<title>Node11&#45;&gt;Node29</title>
<path fill="none" stroke="black" d="M306.79,-367.24C329.91,-356.92 360.34,-343.33 385.24,-332.21"/>
<polygon fill="black" stroke="black" points="386.78,-335.36 394.49,-328.08 383.93,-328.96 386.78,-335.36"/>
</g>
<!-- Node16 -->
<g id="node16" class="node">
<title>Node16</title>
<polygon fill="none" stroke="black" points="464,-110 357,-110 357,-74 464,-74 464,-110"/>
<text text-anchor="middle" x="410.5" y="-88.3" font-family="Times,serif" font-size="14.00">llvm/IR/Value.h</text>
</g>
<!-- Node15&#45;&gt;Node16 -->
<g id="edge15" class="edge">
<title>Node15&#45;&gt;Node16</title>
<path fill="none" stroke="black" d="M343.8,-146.81C355.15,-137.66 369.28,-126.26 381.6,-116.32"/>
<polygon fill="black" stroke="black" points="383.81,-119.03 389.39,-110.03 379.41,-113.58 383.81,-119.03"/>
</g>
<!-- Node17 -->
<g id="node17" class="node">
<title>Node17</title>
<polygon fill="none" stroke="black" points="339,-110 210,-110 210,-74 339,-74 339,-110"/>
<text text-anchor="middle" x="274.5" y="-88.3" font-family="Times,serif" font-size="14.00">llvm/IR/IRBuilder.h</text>
</g>
<!-- Node15&#45;&gt;Node17 -->
<g id="edge16" class="edge">
<title>Node15&#45;&gt;Node17</title>
<path fill="none" stroke="black" d="M310.88,-146.81C305.1,-138.27 298.01,-127.77 291.62,-118.32"/>
<polygon fill="black" stroke="black" points="294.51,-116.35 286.01,-110.03 288.71,-120.27 294.51,-116.35"/>
</g>
<!-- Node18 -->
<g id="node18" class="node">
<title>Node18</title>
<polygon fill="none" stroke="black" points="620.5,-110 520.5,-110 520.5,-74 620.5,-74 620.5,-110"/>
<text text-anchor="middle" x="570.5" y="-88.3" font-family="Times,serif" font-size="14.00">TypeWrapper.h</text>
</g>
<!-- Node15&#45;&gt;Node18 -->
<g id="edge17" class="edge">
<title>Node15&#45;&gt;Node18</title>
<path fill="none" stroke="black" d="M375.06,-148.45C377.92,-147.62 380.74,-146.8 383.5,-146 425.87,-133.74 473.72,-120.19 510.42,-109.85"/>
<polygon fill="black" stroke="black" points="511.78,-113.1 520.46,-107.03 509.88,-106.37 511.78,-113.1"/>
</g>
<!-- Node15&#45;&gt;Node23 -->
<g id="edge24" class="edge">
<title>Node15&#45;&gt;Node23</title>
<path fill="none" stroke="black" d="M375.28,-147.93C378.05,-147.24 380.8,-146.59 383.5,-146 491.43,-122.3 520.87,-130.23 629.5,-110 641.58,-107.75 654.67,-104.92 666.48,-102.22"/>
<polygon fill="black" stroke="black" points="667.52,-105.57 676.47,-99.9 665.94,-98.75 667.52,-105.57"/>
</g>
<!-- Node18&#45;&gt;Node12 -->
<g id="edge19" class="edge">
<title>Node18&#45;&gt;Node12</title>
<path fill="none" stroke="black" d="M520.41,-82.21C505.04,-79.54 488.08,-76.62 472.5,-74 374.36,-57.5 349.69,-54.18 251.5,-38 227.91,-34.11 201.44,-29.7 180.61,-26.22"/>
<polygon fill="black" stroke="black" points="181.01,-22.74 170.57,-24.54 179.86,-29.64 181.01,-22.74"/>
</g>
<!-- Node18&#45;&gt;Node14 -->
<g id="edge23" class="edge">
<title>Node18&#45;&gt;Node14</title>
<path fill="none" stroke="black" d="M520.27,-77.33C515.62,-76.16 510.98,-75.03 506.5,-74 428.89,-56.08 403.89,-64.08 324.63,-37.91"/>
<polygon fill="black" stroke="black" points="325.28,-34.44 314.69,-34.54 323.04,-41.07 325.28,-34.44"/>
</g>
<!-- Node19 -->
<g id="node19" class="node">
<title>Node19</title>
<polygon fill="none" stroke="black" points="667.5,-37 603.5,-37 603.5,-1 667.5,-1 667.5,-37"/>
<text text-anchor="middle" x="635.5" y="-15.3" font-family="Times,serif" font-size="14.00">memory</text>
</g>
<!-- Node18&#45;&gt;Node19 -->
<g id="edge18" class="edge">
<title>Node18&#45;&gt;Node19</title>
<path fill="none" stroke="black" d="M586.23,-73.81C594.3,-65 604.26,-54.13 613.11,-44.46"/>
<polygon fill="black" stroke="black" points="615.74,-46.77 619.91,-37.03 610.58,-42.04 615.74,-46.77"/>
</g>
<!-- Node20 -->
<g id="node20" class="node">
<title>Node20</title>
<polygon fill="none" stroke="black" points="585,-37 524,-37 524,-1 585,-1 585,-37"/>
<text text-anchor="middle" x="554.5" y="-15.3" font-family="Times,serif" font-size="14.00">optional</text>
</g>
<!-- Node18&#45;&gt;Node20 -->
<g id="edge20" class="edge">
<title>Node18&#45;&gt;Node20</title>
<path fill="none" stroke="black" d="M566.63,-73.81C564.82,-65.79 562.62,-56.05 560.6,-47.07"/>
<polygon fill="black" stroke="black" points="563.95,-46.01 558.34,-37.03 557.12,-47.55 563.95,-46.01"/>
</g>
<!-- Node21 -->
<g id="node21" class="node">
<title>Node21</title>
<polygon fill="none" stroke="black" points="396.5,-38 332.5,-38 332.5,0 396.5,0 396.5,-38"/>
<text text-anchor="start" x="340.5" y="-22.8" font-family="Times,serif" font-size="14.00">llvm/IR/</text>
<text text-anchor="middle" x="364.5" y="-7.8" font-family="Times,serif" font-size="14.00">Type.h</text>
</g>
<!-- Node18&#45;&gt;Node21 -->
<g id="edge21" class="edge">
<title>Node18&#45;&gt;Node21</title>
<path fill="none" stroke="black" d="M520.22,-76.32C489.54,-67.03 449.42,-54.28 406.17,-38.09"/>
<polygon fill="black" stroke="black" points="407.19,-34.73 396.6,-34.47 404.71,-41.28 407.19,-34.73"/>
</g>
<!-- Node22 -->
<g id="node22" class="node">
<title>Node22</title>
<polygon fill="none" stroke="black" points="506,-38 415,-38 415,0 506,0 506,-38"/>
<text text-anchor="start" x="423" y="-22.8" font-family="Times,serif" font-size="14.00">llvm/IR/</text>
<text text-anchor="middle" x="460.5" y="-7.8" font-family="Times,serif" font-size="14.00">DataLayout.h</text>
</g>
<!-- Node18&#45;&gt;Node22 -->
<g id="edge22" class="edge">
<title>Node18&#45;&gt;Node22</title>
<path fill="none" stroke="black" d="M544.15,-73.99C530.13,-64.94 512.65,-53.66 497.3,-43.75"/>
<polygon fill="black" stroke="black" points="498.86,-40.59 488.56,-38.11 495.06,-46.47 498.86,-40.59"/>
</g>
<!-- Node24 -->
<g id="node24" class="node">
<title>Node24</title>
<polygon fill="none" stroke="black" points="837.5,-37 783.5,-37 783.5,-1 837.5,-1 837.5,-37"/>
<text text-anchor="middle" x="810.5" y="-15.3" font-family="Times,serif" font-size="14.00">string</text>
</g>
<!-- Node23&#45;&gt;Node24 -->
<g id="edge25" class="edge">
<title>Node23&#45;&gt;Node24</title>
<path fill="none" stroke="black" d="M729.89,-73.99C743.82,-64.67 761.27,-52.97 776.37,-42.86"/>
<polygon fill="black" stroke="black" points="778.59,-45.59 784.95,-37.11 774.69,-39.77 778.59,-45.59"/>
</g>
<!-- Node25 -->
<g id="node25" class="node">
<title>Node25</title>
<polygon fill="none" stroke="black" points="765.5,-38 685.5,-38 685.5,0 765.5,0 765.5,-38"/>
<text text-anchor="start" x="693.5" y="-22.8" font-family="Times,serif" font-size="14.00">antlr/tree/</text>
<text text-anchor="middle" x="725.5" y="-7.8" font-family="Times,serif" font-size="14.00">ParseTree.h</text>
</g>
<!-- Node23&#45;&gt;Node25 -->
<g id="edge26" class="edge">
<title>Node23&#45;&gt;Node25</title>
<path fill="none" stroke="black" d="M709.58,-73.81C711.89,-66.03 714.67,-56.62 717.26,-47.86"/>
<polygon fill="black" stroke="black" points="720.69,-48.6 720.17,-38.02 713.98,-46.62 720.69,-48.6"/>
</g>
<!-- Node26&#45;&gt;Node15 -->
<g id="edge31" class="edge">
<title>Node26&#45;&gt;Node15</title>
<path fill="none" stroke="black" d="M404.63,-219.99C390.44,-210.67 372.66,-198.97 357.27,-188.86"/>
<polygon fill="black" stroke="black" points="358.81,-185.68 348.53,-183.11 354.97,-191.53 358.81,-185.68"/>
</g>
<!-- Node26&#45;&gt;Node18 -->
<g id="edge30" class="edge">
<title>Node26&#45;&gt;Node18</title>
<path fill="none" stroke="black" d="M447.11,-219.92C471.84,-194.48 518.47,-146.51 546.79,-117.39"/>
<polygon fill="black" stroke="black" points="549.45,-119.67 553.91,-110.06 544.43,-114.79 549.45,-119.67"/>
</g>
<!-- Node26&#45;&gt;Node24 -->
<g id="edge28" class="edge">
<title>Node26&#45;&gt;Node24</title>
<path fill="none" stroke="black" d="M459.98,-219.88C476.42,-209.97 497.04,-196.93 514.5,-184 535.26,-168.62 535.27,-157.32 558.5,-146 633.02,-109.7 671.07,-153.71 741.5,-110 766.31,-94.6 785.53,-66.85 797.31,-46.21"/>
<polygon fill="black" stroke="black" points="800.45,-47.76 802.19,-37.31 794.32,-44.39 800.45,-47.76"/>
</g>
<!-- Node27 -->
<g id="node27" class="node">
<title>Node27</title>
<polygon fill="none" stroke="black" points="468,-184 393,-184 393,-146 468,-146 468,-184"/>
<text text-anchor="start" x="401" y="-168.8" font-family="Times,serif" font-size="14.00">llvm/IR/</text>
<text text-anchor="middle" x="430.5" y="-153.8" font-family="Times,serif" font-size="14.00">Function.h</text>
</g>
<!-- Node26&#45;&gt;Node27 -->
<g id="edge29" class="edge">
<title>Node26&#45;&gt;Node27</title>
<path fill="none" stroke="black" d="M430.5,-219.81C430.5,-212.11 430.5,-202.82 430.5,-194.15"/>
<polygon fill="black" stroke="black" points="434,-194.02 430.5,-184.02 427,-194.02 434,-194.02"/>
</g>
<!-- Node29&#45;&gt;Node12 -->
<g id="edge35" class="edge">
<title>Node29&#45;&gt;Node12</title>
<path fill="none" stroke="black" d="M394.44,-292.87C337.09,-263.7 225.62,-198.79 167.5,-110 155.15,-91.14 149.14,-66.13 146.22,-47.26"/>
<polygon fill="black" stroke="black" points="149.67,-46.66 144.86,-37.22 142.73,-47.6 149.67,-46.66"/>
</g>
<!-- Node29&#45;&gt;Node24 -->
<g id="edge34" class="edge">
<title>Node29&#45;&gt;Node24</title>
<path fill="none" stroke="black" d="M466.72,-297.85C535.54,-273.06 686.13,-210.33 773.5,-110 789.3,-91.86 798.97,-66.05 804.44,-46.72"/>
<polygon fill="black" stroke="black" points="807.84,-47.57 807,-37.01 801.07,-45.79 807.84,-47.57"/>
</g>
<!-- Node29&#45;&gt;Node26 -->
<g id="edge36" class="edge">
<title>Node29&#45;&gt;Node26</title>
<path fill="none" stroke="black" d="M430.5,-292.81C430.5,-284.79 430.5,-275.05 430.5,-266.07"/>
<polygon fill="black" stroke="black" points="434,-266.03 430.5,-256.03 427,-266.03 434,-266.03"/>
</g>
<!-- Node31 -->
<g id="node31" class="node">
<title>Node31</title>
<polygon fill="none" stroke="black" points="627.5,-402 531.5,-402 531.5,-366 627.5,-366 627.5,-402"/>
<text text-anchor="middle" x="579.5" y="-380.3" font-family="Times,serif" font-size="14.00">PackageJson.h</text>
</g>
<!-- Node31&#45;&gt;Node14 -->
<g id="edge40" class="edge">
<title>Node31&#45;&gt;Node14</title>
<path fill="none" stroke="black" d="M579,-365.92C576.51,-313.72 561.6,-154.91 472.5,-74 424.33,-30.26 390.63,-58.56 324.31,-37.7"/>
<polygon fill="black" stroke="black" points="325.33,-34.35 314.73,-34.42 323.06,-40.97 325.33,-34.35"/>
</g>
<!-- Node31&#45;&gt;Node19 -->
<g id="edge39" class="edge">
<title>Node31&#45;&gt;Node19</title>
<path fill="none" stroke="black" d="M597.53,-365.84C606.8,-356.12 617.58,-343.27 624.5,-330 643.85,-292.92 648.5,-280.83 648.5,-239 648.5,-239 648.5,-239 648.5,-164 648.5,-123.27 643.28,-76.32 639.45,-47.39"/>
<polygon fill="black" stroke="black" points="642.89,-46.68 638.07,-37.24 635.95,-47.63 642.89,-46.68"/>
</g>
<!-- Node31&#45;&gt;Node29 -->
<g id="edge42" class="edge">
<title>Node31&#45;&gt;Node29</title>
<path fill="none" stroke="black" d="M543.81,-365.99C523.32,-356.23 497.4,-343.88 475.52,-333.45"/>
<polygon fill="black" stroke="black" points="476.95,-330.26 466.41,-329.11 473.94,-336.57 476.95,-330.26"/>
</g>
<!-- Node32 -->
<g id="node32" class="node">
<title>Node32</title>
<polygon fill="none" stroke="black" points="800,-330 677,-330 677,-292 800,-292 800,-330"/>
<text text-anchor="start" x="685" y="-314.8" font-family="Times,serif" font-size="14.00">boost/property_tree</text>
<text text-anchor="middle" x="738.5" y="-299.8" font-family="Times,serif" font-size="14.00">/ptree.hpp</text>
</g>
<!-- Node31&#45;&gt;Node32 -->
<g id="edge41" class="edge">
<title>Node31&#45;&gt;Node32</title>
<path fill="none" stroke="black" d="M617.58,-365.99C638.9,-356.47 665.73,-344.49 688.7,-334.24"/>
<polygon fill="black" stroke="black" points="690.24,-337.38 697.95,-330.11 687.39,-330.99 690.24,-337.38"/>
</g>
</g>
</svg>
