<?xml version="1.0" encoding="us-ascii" standalone="no"?><svg xmlns="http://www.w3.org/2000/svg" xmlns:xlink="http://www.w3.org/1999/xlink" contentStyleType="text/css" height="325px" preserveAspectRatio="none" style="width:873px;height:325px;background:#FFFFFF;" version="1.1" viewBox="0 0 873 325" width="873px" zoomAndPan="magnify"><defs/><g><!--entity Frontend--><g id="elem_Frontend"><rect fill="#F1F1F1" height="49.0679" rx="2.5" ry="2.5" style="stroke:#000000;stroke-width:0.5;" width="101" x="124.5" y="129"/><rect fill="#F1F1F1" height="10" style="stroke:#000000;stroke-width:0.5;" width="15" x="205.5" y="134"/><rect fill="#F1F1F1" height="2" style="stroke:#000000;stroke-width:0.5;" width="4" x="203.5" y="136"/><rect fill="#F1F1F1" height="2" style="stroke:#000000;stroke-width:0.5;" width="4" x="203.5" y="140"/><text fill="#000000" font-family="sans-serif" font-size="14" lengthAdjust="spacing" textLength="61" x="139.5" y="163.9659">Frontend</text></g><!--entity Middleend--><g id="elem_Middleend"><rect fill="#F1F1F1" height="49.0679" rx="2.5" ry="2.5" style="stroke:#000000;stroke-width:0.5;" width="118" x="367" y="129"/><rect fill="#F1F1F1" height="10" style="stroke:#000000;stroke-width:0.5;" width="15" x="465" y="134"/><rect fill="#F1F1F1" height="2" style="stroke:#000000;stroke-width:0.5;" width="4" x="463" y="136"/><rect fill="#F1F1F1" height="2" style="stroke:#000000;stroke-width:0.5;" width="4" x="463" y="140"/><text fill="#000000" font-family="sans-serif" font-size="14" lengthAdjust="spacing" textLength="78" x="382" y="163.9659">Middle-End</text></g><!--entity Backend--><g id="elem_Backend"><rect fill="#F1F1F1" height="49.0679" rx="2.5" ry="2.5" style="stroke:#000000;stroke-width:0.5;" width="97" x="626.5" y="129"/><rect fill="#F1F1F1" height="10" style="stroke:#000000;stroke-width:0.5;" width="15" x="703.5" y="134"/><rect fill="#F1F1F1" height="2" style="stroke:#000000;stroke-width:0.5;" width="4" x="701.5" y="136"/><rect fill="#F1F1F1" height="2" style="stroke:#000000;stroke-width:0.5;" width="4" x="701.5" y="140"/><text fill="#000000" font-family="sans-serif" font-size="14" lengthAdjust="spacing" textLength="57" x="641.5" y="163.9659">Backend</text></g><!--entity a--><g id="elem_a"><ellipse cx="14" cy="153.5" fill="none" rx="8" ry="8" style="stroke:none;stroke-width:0.5;"/></g><!--entity b--><g id="elem_b"><ellipse cx="859" cy="153.5" fill="none" rx="8" ry="8" style="stroke:none;stroke-width:0.5;"/></g><!--entity c--><g id="elem_c"><ellipse cx="175" cy="311" fill="none" rx="8" ry="8" style="stroke:none;stroke-width:0.5;"/></g><!--entity g--><g id="elem_g"><ellipse cx="175" cy="14" fill="none" rx="8" ry="8" style="stroke:none;stroke-width:0.5;"/></g><!--entity d--><g id="elem_d"><ellipse cx="426" cy="311" fill="none" rx="8" ry="8" style="stroke:none;stroke-width:0.5;"/></g><!--entity e--><g id="elem_e"><ellipse cx="675" cy="311" fill="none" rx="8" ry="8" style="stroke:none;stroke-width:0.5;"/></g><!--entity f--><g id="elem_f"><ellipse cx="675" cy="14" fill="none" rx="8" ry="8" style="stroke:none;stroke-width:0.5;"/></g><!--link a to Frontend--><g id="link_a_Frontend"><path d="M23.12,153.5 C42.28,153.5 81.94,153.5 118.22,153.5 " fill="none" id="a-to-Frontend" style="stroke:#181818;stroke-width:1.0;"/><polygon fill="#181818" points="124.22,153.5,115.22,149.5,119.22,153.5,115.22,157.5,124.22,153.5" style="stroke:#181818;stroke-width:1.0;"/><text fill="#000000" font-family="sans-serif" font-size="13" lengthAdjust="spacing" textLength="65" x="41.25" y="128.397">&#1048;&#1089;&#1093;&#1086;&#1076;&#1085;&#1099;&#1081;</text><text fill="#000000" font-family="sans-serif" font-size="13" lengthAdjust="spacing" textLength="23" x="62.25" y="146.103">&#1082;&#1086;&#1076;</text></g><!--reverse link Frontend to c--><g id="link_Frontend_c"><path d="M175,184.12 C175,219.63 175,279.06 175,301.89 " fill="none" id="Frontend-backto-c" style="stroke:#181818;stroke-width:1.0;"/><polygon fill="#181818" points="175,178.12,171,187.12,175,183.12,179,187.12,175,178.12" style="stroke:#181818;stroke-width:1.0;"/><text fill="#000000" font-family="sans-serif" font-size="13" lengthAdjust="spacing" textLength="102" x="176" y="222.897">&#1057;&#1080;&#1085;&#1090;&#1072;&#1082;&#1089;&#1080;&#1095;&#1077;&#1089;&#1082;&#1080;&#1081;</text><text fill="#000000" font-family="sans-serif" font-size="13" lengthAdjust="spacing" textLength="91" x="183" y="240.603">&#1080; &#1083;&#1077;&#1082;&#1089;&#1080;&#1095;&#1077;&#1089;&#1082;&#1080;&#1081;</text><text fill="#000000" font-family="sans-serif" font-size="13" lengthAdjust="spacing" textLength="83" x="187" y="258.309">&#1072;&#1085;&#1072;&#1083;&#1080;&#1079;&#1072;&#1090;&#1086;&#1088;&#1099;</text></g><!--link g to Frontend--><g id="link_g_Frontend"><path d="M175,23.19 C175,43.6 175,91.33 175,122.74 " fill="none" id="g-to-Frontend" style="stroke:#181818;stroke-width:1.0;"/><polygon fill="#181818" points="175,128.74,179,119.74,175,123.74,171,119.74,175,128.74" style="stroke:#181818;stroke-width:1.0;"/><text fill="#000000" font-family="sans-serif" font-size="13" lengthAdjust="spacing" textLength="77" x="176" y="76.897">&#1043;&#1088;&#1072;&#1084;&#1084;&#1072;&#1090;&#1080;&#1082;&#1072;</text><text fill="#000000" font-family="sans-serif" font-size="13" lengthAdjust="spacing" textLength="18" x="205.5" y="94.603">&#1071;&#1055;</text></g><!--link Frontend to Middleend--><g id="link_Frontend_Middleend"><path d="M225.79,153.5 C266.62,153.5 318.03,153.5 360.91,153.5 " fill="none" id="Frontend-to-Middleend" style="stroke:#181818;stroke-width:1.0;"/><polygon fill="#181818" points="366.91,153.5,357.91,149.5,361.91,153.5,357.91,157.5,366.91,153.5" style="stroke:#181818;stroke-width:1.0;"/><text fill="#000000" font-family="sans-serif" font-size="13" lengthAdjust="spacing" textLength="105" x="243.75" y="128.397">&#1055;&#1088;&#1086;&#1084;&#1077;&#1078;&#1091;&#1090;&#1086;&#1095;&#1085;&#1086;&#1077;</text><text fill="#000000" font-family="sans-serif" font-size="13" lengthAdjust="spacing" textLength="95" x="248.75" y="146.103">&#1087;&#1088;&#1077;&#1076;&#1089;&#1090;&#1072;&#1074;&#1083;&#1077;&#1085;&#1080;&#1077;</text></g><!--reverse link Middleend to d--><g id="link_Middleend_d"><path d="M426,184.12 C426,219.63 426,279.06 426,301.89 " fill="none" id="Middleend-backto-d" style="stroke:#181818;stroke-width:1.0;"/><polygon fill="#181818" points="426,178.12,422,187.12,426,183.12,430,187.12,426,178.12" style="stroke:#181818;stroke-width:1.0;"/><text fill="#000000" font-family="sans-serif" font-size="13" lengthAdjust="spacing" textLength="86" x="427" y="240.897">&#1054;&#1087;&#1090;&#1080;&#1084;&#1080;&#1079;&#1072;&#1094;&#1080;&#1103;</text></g><!--link Middleend to Backend--><g id="link_Middleend_Backend"><path d="M485.01,153.5 C528.15,153.5 579.97,153.5 620.45,153.5 " fill="none" id="Middleend-to-Backend" style="stroke:#181818;stroke-width:1.0;"/><polygon fill="#181818" points="626.45,153.5,617.45,149.5,621.45,153.5,617.45,157.5,626.45,153.5" style="stroke:#181818;stroke-width:1.0;"/><text fill="#000000" font-family="sans-serif" font-size="13" lengthAdjust="spacing" textLength="105" x="503.25" y="128.397">&#1055;&#1088;&#1086;&#1084;&#1077;&#1078;&#1091;&#1090;&#1086;&#1095;&#1085;&#1086;&#1077;</text><text fill="#000000" font-family="sans-serif" font-size="13" lengthAdjust="spacing" textLength="95" x="508.25" y="146.103">&#1087;&#1088;&#1077;&#1076;&#1089;&#1090;&#1072;&#1074;&#1083;&#1077;&#1085;&#1080;&#1077;</text></g><!--reverse link Backend to e--><g id="link_Backend_e"><path d="M675,184.12 C675,219.63 675,279.06 675,301.89 " fill="none" id="Backend-backto-e" style="stroke:#181818;stroke-width:1.0;"/><polygon fill="#181818" points="675,178.12,671,187.12,675,183.12,679,187.12,675,178.12" style="stroke:#181818;stroke-width:1.0;"/><text fill="#000000" font-family="sans-serif" font-size="13" lengthAdjust="spacing" textLength="66" x="689" y="222.897">&#1043;&#1077;&#1085;&#1077;&#1088;&#1072;&#1090;&#1086;&#1088;</text><text fill="#000000" font-family="sans-serif" font-size="13" lengthAdjust="spacing" textLength="92" x="676" y="240.603">&#1080;&#1089;&#1087;&#1086;&#1083;&#1085;&#1103;&#1077;&#1084;&#1086;&#1075;&#1086;</text><text fill="#000000" font-family="sans-serif" font-size="13" lengthAdjust="spacing" textLength="30" x="707" y="258.309">&#1082;&#1086;&#1076;&#1072;</text></g><!--link f to Backend--><g id="link_f_Backend"><path d="M675,23.19 C675,43.6 675,91.33 675,122.74 " fill="none" id="f-to-Backend" style="stroke:#181818;stroke-width:1.0;"/><polygon fill="#181818" points="675,128.74,679,119.74,675,123.74,671,119.74,675,128.74" style="stroke:#181818;stroke-width:1.0;"/><text fill="#000000" font-family="sans-serif" font-size="13" lengthAdjust="spacing" textLength="53" x="686.5" y="76.897">&#1062;&#1077;&#1083;&#1077;&#1074;&#1072;&#1103;</text><text fill="#000000" font-family="sans-serif" font-size="13" lengthAdjust="spacing" textLength="71" x="679" y="94.603">&#1087;&#1083;&#1072;&#1090;&#1092;&#1086;&#1088;&#1084;&#1072;</text></g><!--link Backend to b--><g id="link_Backend_b"><path d="M723.83,153.5 C767.26,153.5 821.31,153.5 843.91,153.5 " fill="none" id="Backend-to-b" style="stroke:#181818;stroke-width:1.0;"/><polygon fill="#181818" points="849.91,153.5,840.91,149.5,844.91,153.5,840.91,157.5,849.91,153.5" style="stroke:#181818;stroke-width:1.0;"/><text fill="#000000" font-family="sans-serif" font-size="13" lengthAdjust="spacing" textLength="90" x="741.75" y="128.397">&#1048;&#1089;&#1087;&#1086;&#1083;&#1085;&#1103;&#1077;&#1084;&#1099;&#1081;</text><text fill="#000000" font-family="sans-serif" font-size="13" lengthAdjust="spacing" textLength="32" x="770.75" y="146.103">&#1092;&#1072;&#1081;&#1083;</text></g><!--SRC=[hPAnRjim54LtViM3bqpwWGu5sg3PqgbZ5bgY5I4owL8oYY8ea3H9CsJmqALJWovTAwHHOrksyWkFVzHBMv5jPIfG6uPCFTxpthtaNdQIw96qSaXfebN-SQJ8sFpO216QuSXefNCwi4RdIaTRhtg7IHIbAdYZenx9ZDRBtJslPNZYt-2pwPA0P0SoL7GgYFhO4biprj6-IOsbt4gTOIFalcfifEppogSjtgRTgTZx5s0_nLOlEO2vjtAew5qoL1dWM_HClHyh7Qf3bMKoLg_I9DOKAky10IKsJ1NrQ9M0xApxthUG5DWaFiw3bssAz8BucpjtLrppFI_T3S-EDC_zgeC8HKZ1UBIbXVG7Jo7wp0NFtJbFtJMNUCxnTaRWJ8ahBf_NK2fuYL-5rGCN8DJkpDrqMiOYfY0o7_Hkqw_k3D85lbuu1R80y1VVYjPLwxEz2jxeBOGrP2N_SHUhdjUOekOIyaVKIhv75DxDtMhk9U1bDzf8H4qEBHlexm3uMHQDeIymF16Rxkr0pJtyR-CeePfn6h8FQBMvz36ja_L7WUmV0QzmNXFK5_Z_c-kdm-QY2nw8GHl-1lqJKZ_B7T2J8qrWLhwBk_Hz_9689uUjvNvpoNRxhwyQT0NFk19_0G00]--></g></svg>