<?xml version="1.0" encoding="us-ascii" standalone="no"?><svg xmlns="http://www.w3.org/2000/svg" xmlns:xlink="http://www.w3.org/1999/xlink" contentStyleType="text/css" height="201px" preserveAspectRatio="none" style="width:872px;height:201px;background:#FFFFFF;" version="1.1" viewBox="0 0 872 201" width="872px" zoomAndPan="magnify"><defs/><g><rect fill="#F1F1F1" height="46.1358" rx="5" ry="5" style="stroke:#F1F1F1;stroke-width:1.5;" width="124" x="10" y="87.534"/><text fill="#000000" font-family="sans-serif" font-size="14" font-weight="bold" lengthAdjust="spacing" textLength="92" x="15" y="104.4999">shadowStack</text><text fill="#000000" font-family="sans-serif" font-size="14" lengthAdjust="spacing" textLength="12" x="117" y="104.4999">&#160;&#160;&#160;</text><line style="stroke:#000000;stroke-width:1.0;" x1="112" x2="112" y1="87.534" y2="110.6019"/><line style="stroke:#000000;stroke-width:1.0;" x1="10" x2="134" y1="110.6019" y2="110.6019"/><text fill="#000000" font-family="sans-serif" font-size="14" font-weight="bold" lengthAdjust="spacing" textLength="90" x="15" y="127.5678">shadowHeap</text><text fill="#000000" font-family="sans-serif" font-size="14" lengthAdjust="spacing" textLength="12" x="117" y="127.5678">&#160;&#160;&#160;</text><line style="stroke:#000000;stroke-width:1.0;" x1="112" x2="112" y1="110.6019" y2="133.6698"/><rect fill="none" height="46.1358" rx="5" ry="5" style="stroke:#000000;stroke-width:1.5;" width="124" x="10" y="87.534"/><rect fill="#F1F1F1" height="69.2038" rx="5" ry="5" style="stroke:#F1F1F1;stroke-width:1.5;" width="22" x="271" y="33"/><text fill="#000000" font-family="sans-serif" font-size="14" lengthAdjust="spacing" textLength="12" x="276" y="49.9659">&#160;&#160;&#160;</text><line style="stroke:#000000;stroke-width:1.0;" x1="271" x2="293" y1="56.0679" y2="56.0679"/><text fill="#000000" font-family="sans-serif" font-size="14" lengthAdjust="spacing" textLength="12" x="276" y="73.0339">...</text><line style="stroke:#000000;stroke-width:1.0;" x1="271" x2="293" y1="79.1358" y2="79.1358"/><text fill="#000000" font-family="sans-serif" font-size="14" lengthAdjust="spacing" textLength="4" x="276" y="96.1018">&#160;</text><rect fill="none" height="69.2038" rx="5" ry="5" style="stroke:#000000;stroke-width:1.5;" width="22" x="271" y="33"/><rect fill="#F1F1F1" height="23.0679" rx="5" ry="5" style="stroke:#F1F1F1;stroke-width:1.5;" width="60" x="430" y="33.0679"/><text fill="#000000" font-family="sans-serif" font-size="14" font-weight="bold" lengthAdjust="spacing" textLength="28" x="435" y="50.0339">ptrs</text><text fill="#000000" font-family="sans-serif" font-size="14" lengthAdjust="spacing" textLength="12" x="473" y="50.0339">&#160;&#160;&#160;</text><line style="stroke:#000000;stroke-width:1.0;" x1="468" x2="468" y1="33.0679" y2="56.1358"/><rect fill="none" height="23.0679" rx="5" ry="5" style="stroke:#000000;stroke-width:1.5;" width="60" x="430" y="33.0679"/><rect fill="#F1F1F1" height="69.2038" rx="5" ry="5" style="stroke:#F1F1F1;stroke-width:1.5;" width="22" x="587.5" y="10"/><text fill="#000000" font-family="sans-serif" font-size="14" lengthAdjust="spacing" textLength="12" x="592.5" y="26.9659">&#160;&#160;&#160;</text><line style="stroke:#000000;stroke-width:1.0;" x1="587.5" x2="609.5" y1="33.0679" y2="33.0679"/><text fill="#000000" font-family="sans-serif" font-size="14" lengthAdjust="spacing" textLength="12" x="592.5" y="50.0339">...</text><line style="stroke:#000000;stroke-width:1.0;" x1="587.5" x2="609.5" y1="56.1358" y2="56.1358"/><text fill="#000000" font-family="sans-serif" font-size="14" lengthAdjust="spacing" textLength="4" x="592.5" y="73.1018">&#160;</text><rect fill="none" height="69.2038" rx="5" ry="5" style="stroke:#000000;stroke-width:1.5;" width="22" x="587.5" y="10"/><rect fill="#F1F1F1" height="23.0679" rx="5" ry="5" style="stroke:#F1F1F1;stroke-width:1.5;" width="153" x="707" y="10.0679"/><text fill="#000000" font-family="sans-serif" font-size="14" lengthAdjust="spacing" textLength="143" x="712" y="27.0339">&#1059;&#1082;&#1072;&#1079;&#1072;&#1090;&#1077;&#1083;&#1100; &#1085;&#1072; &#1086;&#1073;&#1098;&#1077;&#1082;&#1090;</text><rect fill="none" height="23.0679" rx="5" ry="5" style="stroke:#000000;stroke-width:1.5;" width="153" x="707" y="10.0679"/><rect fill="#F1F1F1" height="69.2038" rx="5" ry="5" style="stroke:#F1F1F1;stroke-width:1.5;" width="222" x="171" y="120"/><text fill="#000000" font-family="sans-serif" font-size="14" font-weight="bold" lengthAdjust="spacing" textLength="21" x="176" y="136.9659">ptr</text><text fill="#000000" font-family="sans-serif" font-size="14" lengthAdjust="spacing" textLength="143" x="232" y="136.9659">&#1059;&#1082;&#1072;&#1079;&#1072;&#1090;&#1077;&#1083;&#1100; &#1085;&#1072; &#1086;&#1073;&#1098;&#1077;&#1082;&#1090;</text><line style="stroke:#000000;stroke-width:1.0;" x1="227" x2="227" y1="120" y2="143.0679"/><line style="stroke:#000000;stroke-width:1.0;" x1="171" x2="393" y1="143.0679" y2="143.0679"/><text fill="#000000" font-family="sans-serif" font-size="14" font-weight="bold" lengthAdjust="spacing" textLength="33" x="176" y="160.0339">links</text><text fill="#000000" font-family="sans-serif" font-size="14" lengthAdjust="spacing" textLength="12" x="232" y="160.0339">&#160;&#160;&#160;</text><line style="stroke:#000000;stroke-width:1.0;" x1="227" x2="227" y1="143.0679" y2="166.1358"/><line style="stroke:#000000;stroke-width:1.0;" x1="171" x2="393" y1="166.1358" y2="166.1358"/><text fill="#000000" font-family="sans-serif" font-size="14" font-weight="bold" lengthAdjust="spacing" textLength="46" x="176" y="183.1018">isUsed</text><text fill="#000000" font-family="sans-serif" font-size="14" lengthAdjust="spacing" textLength="156" x="232" y="183.1018">&#1060;&#1083;&#1072;&#1075; &#1086; &#1080;&#1089;&#1087;&#1086;&#1083;&#1100;&#1079;&#1086;&#1074;&#1072;&#1085;&#1080;&#1080;</text><line style="stroke:#000000;stroke-width:1.0;" x1="227" x2="227" y1="166.1358" y2="189.2038"/><rect fill="none" height="69.2038" rx="5" ry="5" style="stroke:#000000;stroke-width:1.5;" width="222" x="171" y="120"/><rect fill="#F1F1F1" height="69.2038" rx="5" ry="5" style="stroke:#F1F1F1;stroke-width:1.5;" width="22" x="449" y="120"/><text fill="#000000" font-family="sans-serif" font-size="14" lengthAdjust="spacing" textLength="12" x="454" y="136.9659">&#160;&#160;&#160;</text><line style="stroke:#000000;stroke-width:1.0;" x1="449" x2="471" y1="143.0679" y2="143.0679"/><text fill="#000000" font-family="sans-serif" font-size="14" lengthAdjust="spacing" textLength="12" x="454" y="160.0339">...</text><line style="stroke:#000000;stroke-width:1.0;" x1="449" x2="471" y1="166.1358" y2="166.1358"/><text fill="#000000" font-family="sans-serif" font-size="14" lengthAdjust="spacing" textLength="4" x="454" y="183.1018">&#160;</text><rect fill="none" height="69.2038" rx="5" ry="5" style="stroke:#000000;stroke-width:1.5;" width="22" x="449" y="120"/><rect fill="#F1F1F1" height="23.0679" rx="5" ry="5" style="stroke:#F1F1F1;stroke-width:1.5;" width="143" x="527" y="120.0679"/><text fill="#000000" font-family="sans-serif" font-size="14" lengthAdjust="spacing" textLength="133" x="532" y="137.0339">&#1057;&#1076;&#1074;&#1080;&#1075; &#1085;&#1072; &#1091;&#1082;&#1072;&#1079;&#1072;&#1090;&#1077;&#1083;&#1100;</text><rect fill="none" height="23.0679" rx="5" ry="5" style="stroke:#000000;stroke-width:1.5;" width="143" x="527" y="120.0679"/><path d="M598,21.6019 L611,21.6019 C639.7961,21.6019 671.3041,21.6019 699.3947,21.6019 " fill="none" style="stroke:#000000;stroke-width:1.0;stroke-dasharray:3.0,3.0;"/><path d="M699.3947,24.7328 L701.7429,21.6019 L699.3947,18.471 L707.222,21.6019 L699.3947,24.7328 " fill="#000000" style="stroke:#000000;stroke-width:1.0;"/><ellipse cx="598" cy="21.6019" fill="#000000" rx="3" ry="3" style="stroke:#000000;stroke-width:1.0;"/><path d="M478,44.6019 L491,44.6019 C522.487,44.6019 559.1859,44.6019 580.3915,44.6019 " fill="none" style="stroke:#000000;stroke-width:1.0;stroke-dasharray:3.0,3.0;"/><path d="M580.3915,47.6328 L582.6647,44.6019 L580.3915,41.571 L587.9688,44.6019 L580.3915,47.6328 " fill="#000000" style="stroke:#000000;stroke-width:1.0;"/><ellipse cx="478" cy="44.6019" fill="#000000" rx="3" ry="3" style="stroke:#000000;stroke-width:1.0;"/><path d="M281.5,44.6019 L294.5,44.6019 C338.5228,44.6019 389.1525,44.6019 422.592,44.6019 " fill="none" style="stroke:#000000;stroke-width:1.0;stroke-dasharray:3.0,3.0;"/><path d="M422.592,47.6814 L424.9016,44.6019 L422.592,41.5224 L430.2907,44.6019 L422.592,47.6814 " fill="#000000" style="stroke:#000000;stroke-width:1.0;"/><ellipse cx="281.5" cy="44.6019" fill="#000000" rx="3" ry="3" style="stroke:#000000;stroke-width:1.0;"/><path d="M122,98.6019 L135,98.6019 C182.5597,98.6019 236.9594,82.771 264.1357,73.7352 " fill="none" style="stroke:#000000;stroke-width:1.0;stroke-dasharray:3.0,3.0;"/><path d="M265.1179,76.6229 L266.3015,72.9985 L263.1536,70.8474 L271.3551,71.2797 L265.1179,76.6229 " fill="#000000" style="stroke:#000000;stroke-width:1.0;"/><ellipse cx="122" cy="98.6019" fill="#000000" rx="3" ry="3" style="stroke:#000000;stroke-width:1.0;"/><path d="M459.5,131.6019 L472.5,131.6019 C487.7602,131.6019 504.0643,131.6019 519.6987,131.6019 " fill="none" style="stroke:#000000;stroke-width:1.0;stroke-dasharray:3.0,3.0;"/><path d="M519.6987,134.6474 L521.9828,131.6019 L519.6987,128.5564 L527.3124,131.6019 L519.6987,134.6474 " fill="#000000" style="stroke:#000000;stroke-width:1.0;"/><ellipse cx="459.5" cy="131.6019" fill="#000000" rx="3" ry="3" style="stroke:#000000;stroke-width:1.0;"/><path d="M381,154.6019 L394,154.6019 C410.0445,154.6019 428.2998,154.6019 441.4551,154.6019 " fill="none" style="stroke:#000000;stroke-width:1.0;stroke-dasharray:3.0,3.0;"/><path d="M441.4551,157.7355 L443.8053,154.6019 L441.4551,151.4683 L449.2891,154.6019 L441.4551,157.7355 " fill="#000000" style="stroke:#000000;stroke-width:1.0;"/><ellipse cx="381" cy="154.6019" fill="#000000" rx="3" ry="3" style="stroke:#000000;stroke-width:1.0;"/><path d="M122,122.6019 L135,122.6019 C144.3467,122.6019 153.9532,123.2313 163.5627,124.3135 " fill="none" style="stroke:#000000;stroke-width:1.0;stroke-dasharray:3.0,3.0;"/><path d="M163.1781,127.3945 L165.8735,124.602 L163.9474,121.2325 L171.2652,125.2751 L163.1781,127.3945 " fill="#000000" style="stroke:#000000;stroke-width:1.0;"/><ellipse cx="122" cy="122.6019" fill="#000000" rx="3" ry="3" style="stroke:#000000;stroke-width:1.0;"/><!--SRC=[ZPBBIWCn58RtUOf3LWewEAs8p4gyKriKQtKXNSHEhD6QAKcc8jA5kXDVGlG1wWsBOds5Cs_aQQipA7Wvgt3ov_lF-ScCTSAuVHjfTiA0Yjiz4KP7PITg1po0RJRezkiaFGrqJMViG02_rpR7Qtp63ZvX9pd3Htn9BW5ViGFOmzlaWZhFoHclZlq5ufxdyRzL_3T5DRrifwSC-Ss1mv3rCTf7CijID6dlD8r-43putv8fcpUKFg3uilI-viZn2X_m3hjuFyGavz_nsPxLdpT8HPc6ArknCgGLEDxW2q79eWVOJKxnZQObDDdqoBn3pbti3XbjrcOpKeU3hyBM6aAxIga8BMciYZJuNcuYb_TyVsHBXb2MJV3paFE3t5IGpqEfl0Bz-r4sihHM11l5fYOXLDOPjHCx0eooWcW9M8-rKuSoWDMcr8NvbSy6BEYMCf4-bDgnmcOf4qnDZiygHuw6He7D4fkNko9kE7fHYqAbwm5KDXR7frbHw7eiwiGsCPkBY6kE0rYll0C0]--></g></svg>