<?xml version="1.0" encoding="us-ascii" standalone="no"?><svg xmlns="http://www.w3.org/2000/svg" xmlns:xlink="http://www.w3.org/1999/xlink" contentStyleType="text/css" height="722px" preserveAspectRatio="none" style="width:657px;height:722px;background:#FFFFFF;" version="1.1" viewBox="0 0 657 722" width="657px" zoomAndPan="magnify"><defs/><g><!--cluster R--><g id="cluster_R"><path d="M288.5,6.602 L464.5,6.602 A3.75,3.75 0 0 1 467,9.102 L474,31.6699 L474.5,31.6699 A2.5,2.5 0 0 1 477,34.1699 L477,713.102 A2.5,2.5 0 0 1 474.5,715.602 L288.5,715.602 A2.5,2.5 0 0 1 286,713.102 L286,9.102 A2.5,2.5 0 0 1 288.5,6.602 " fill="none" style="stroke:#000000;stroke-width:1.5;"/><line style="stroke:#000000;stroke-width:1.5;" x1="286" x2="474" y1="31.6699" y2="31.6699"/><text fill="#000000" font-family="sans-serif" font-size="14" font-weight="bold" lengthAdjust="spacing" textLength="175" x="290" y="23.5679">&#1050;&#1086;&#1085;&#1077;&#1095;&#1085;&#1099;&#1077; &#1090;&#1080;&#1087;&#1099; &#1076;&#1072;&#1085;&#1085;&#1099;&#1093;</text></g><!--class PointerType--><g id="elem_PointerType"><rect codeLine="30" fill="#F1F1F1" height="64.1358" id="PointerType" rx="2.5" ry="2.5" style="stroke:#181818;stroke-width:0.5;" width="86" x="338.5" y="44.602"/><text fill="#000000" font-family="sans-serif" font-size="14" lengthAdjust="spacing" textLength="80" x="341.5" y="64.5679">PointerType</text><line style="stroke:#181818;stroke-width:0.5;" x1="339.5" x2="423.5" y1="73.6699" y2="73.6699"/><text fill="#000000" font-family="sans-serif" font-size="14" lengthAdjust="spacing" textLength="69" x="344.5" y="92.6358">type: Type</text><line style="stroke:#181818;stroke-width:0.5;" x1="339.5" x2="423.5" y1="100.7378" y2="100.7378"/></g><!--class ArrayType--><g id="elem_ArrayType"><rect codeLine="35" fill="#F1F1F1" height="64.1358" id="ArrayType" rx="2.5" ry="2.5" style="stroke:#181818;stroke-width:0.5;" width="81" x="341" y="143.602"/><text fill="#000000" font-family="sans-serif" font-size="14" lengthAdjust="spacing" textLength="68" x="347.5" y="163.5679">ArrayType</text><line style="stroke:#181818;stroke-width:0.5;" x1="342" x2="421" y1="172.6699" y2="172.6699"/><text fill="#000000" font-family="sans-serif" font-size="14" lengthAdjust="spacing" textLength="69" x="347" y="191.6358">type: Type</text><line style="stroke:#181818;stroke-width:0.5;" x1="342" x2="421" y1="199.7378" y2="199.7378"/></g><!--class StructType--><g id="elem_StructType"><rect codeLine="39" fill="#F1F1F1" height="102.2717" id="StructType" rx="2.5" ry="2.5" style="stroke:#181818;stroke-width:0.5;" width="147" x="308" y="242.602"/><text fill="#000000" font-family="sans-serif" font-size="14" lengthAdjust="spacing" textLength="72" x="345.5" y="262.5679">StructType</text><line style="stroke:#181818;stroke-width:0.5;" x1="309" x2="454" y1="271.6699" y2="271.6699"/><text fill="#000000" font-family="sans-serif" font-size="14" lengthAdjust="spacing" textLength="109" x="314" y="290.6358">isInterface: bool</text><text fill="#000000" font-family="sans-serif" font-size="14" lengthAdjust="spacing" textLength="126" x="314" y="309.7038">fieldsTypes: Type[]</text><text fill="#000000" font-family="sans-serif" font-size="14" lengthAdjust="spacing" textLength="135" x="314" y="328.7717">fieldsName: string[]</text><line style="stroke:#181818;stroke-width:0.5;" x1="309" x2="454" y1="336.8736" y2="336.8736"/></g><!--class IntegerType--><g id="elem_IntegerType"><rect codeLine="46" fill="#F1F1F1" height="83.2038" id="IntegerType" rx="2.5" ry="2.5" style="stroke:#181818;stroke-width:0.5;" width="107" x="328" y="380.102"/><text fill="#000000" font-family="sans-serif" font-size="14" lengthAdjust="spacing" textLength="82" x="340.5" y="400.0679">IntegerType</text><line style="stroke:#181818;stroke-width:0.5;" x1="329" x2="434" y1="409.1699" y2="409.1699"/><text fill="#000000" font-family="sans-serif" font-size="14" lengthAdjust="spacing" textLength="95" x="334" y="428.1358">isSigned: bool</text><text fill="#000000" font-family="sans-serif" font-size="14" lengthAdjust="spacing" textLength="52" x="334" y="447.2038">size: int</text><line style="stroke:#181818;stroke-width:0.5;" x1="329" x2="434" y1="455.3057" y2="455.3057"/></g><!--class FloatType--><g id="elem_FloatType"><rect codeLine="51" fill="#F1F1F1" height="64.1358" id="FloatType" rx="2.5" ry="2.5" style="stroke:#181818;stroke-width:0.5;" width="70" x="346.5" y="498.602"/><text fill="#000000" font-family="sans-serif" font-size="14" lengthAdjust="spacing" textLength="64" x="349.5" y="518.5679">FloatType</text><line style="stroke:#181818;stroke-width:0.5;" x1="347.5" x2="415.5" y1="527.6699" y2="527.6699"/><text fill="#000000" font-family="sans-serif" font-size="14" lengthAdjust="spacing" textLength="52" x="352.5" y="546.6358">size: int</text><line style="stroke:#181818;stroke-width:0.5;" x1="347.5" x2="415.5" y1="554.7378" y2="554.7378"/></g><!--class FunctionType--><g id="elem_FunctionType"><rect codeLine="55" fill="#F1F1F1" height="102.2717" id="FunctionType" rx="2.5" ry="2.5" style="stroke:#181818;stroke-width:0.5;" width="105" x="329" y="597.602"/><text fill="#000000" font-family="sans-serif" font-size="14" lengthAdjust="spacing" textLength="90" x="336.5" y="617.5679">FunctionType</text><line style="stroke:#181818;stroke-width:0.5;" x1="330" x2="433" y1="626.6699" y2="626.6699"/><text fill="#000000" font-family="sans-serif" font-size="14" lengthAdjust="spacing" textLength="93" x="335" y="645.6358">isVararg: bool</text><text fill="#000000" font-family="sans-serif" font-size="14" lengthAdjust="spacing" textLength="80" x="335" y="664.7038">args: Type[]</text><text fill="#000000" font-family="sans-serif" font-size="14" lengthAdjust="spacing" textLength="91" x="335" y="683.7717">retType: Type</text><line style="stroke:#181818;stroke-width:0.5;" x1="330" x2="433" y1="691.8736" y2="691.8736"/></g><!--class Package--><g id="elem_Package"><rect codeLine="11" fill="#F1F1F1" height="140.4075" id="Package" rx="2.5" ry="2.5" style="stroke:#181818;stroke-width:0.5;" width="235" x="7" y="35.602"/><text fill="#000000" font-family="sans-serif" font-size="14" lengthAdjust="spacing" textLength="55" x="97" y="55.5679">Package</text><line style="stroke:#181818;stroke-width:0.5;" x1="8" x2="241" y1="64.6699" y2="64.6699"/><text fill="#000000" font-family="sans-serif" font-size="14" lengthAdjust="spacing" textLength="86" x="13" y="83.6358">name: string</text><text fill="#000000" font-family="sans-serif" font-size="14" lengthAdjust="spacing" textLength="121" x="13" y="102.7038">hashName: string</text><text fill="#000000" font-family="sans-serif" font-size="14" lengthAdjust="spacing" textLength="170" x="13" y="121.7717">types: map&lt;string, Type&gt;</text><text fill="#000000" font-family="sans-serif" font-size="14" lengthAdjust="spacing" textLength="223" x="13" y="140.8396">functions: map&lt;string, Function&gt;</text><text fill="#000000" font-family="sans-serif" font-size="14" lengthAdjust="spacing" textLength="199" x="13" y="159.9075">constants: map&lt;string, Type&gt;</text><line style="stroke:#181818;stroke-width:0.5;" x1="8" x2="241" y1="168.0095" y2="168.0095"/></g><!--class Type--><g id="elem_Type"><rect codeLine="19" fill="#F1F1F1" height="64.1358" id="Type" rx="2.5" ry="2.5" style="stroke:#181818;stroke-width:0.5;" width="129" x="521" y="261.602"/><text fill="#000000" font-family="sans-serif" font-size="14" lengthAdjust="spacing" textLength="32" x="569.5" y="281.5679">Type</text><line style="stroke:#181818;stroke-width:0.5;" x1="522" x2="649" y1="290.6699" y2="290.6699"/><text fill="#000000" font-family="sans-serif" font-size="14" lengthAdjust="spacing" textLength="117" x="527" y="309.6358">typeName: string</text><line style="stroke:#181818;stroke-width:0.5;" x1="522" x2="649" y1="317.7378" y2="317.7378"/></g><!--class Function--><g id="elem_Function"><rect codeLine="23" fill="#F1F1F1" height="83.2038" id="Function" rx="2.5" ry="2.5" style="stroke:#181818;stroke-width:0.5;" width="139" x="55" y="343.102"/><text fill="#000000" font-family="sans-serif" font-size="14" lengthAdjust="spacing" textLength="58" x="95.5" y="363.0679">Function</text><line style="stroke:#181818;stroke-width:0.5;" x1="56" x2="193" y1="372.1699" y2="372.1699"/><text fill="#000000" font-family="sans-serif" font-size="14" lengthAdjust="spacing" textLength="112" x="61" y="391.1358">linkName: string</text><text fill="#000000" font-family="sans-serif" font-size="14" lengthAdjust="spacing" textLength="127" x="61" y="410.2038">type: FunctionType</text><line style="stroke:#181818;stroke-width:0.5;" x1="56" x2="193" y1="418.3057" y2="418.3057"/></g><!--reverse link Package to Type--><g id="link_Package_Type"><path codeLine="63" d="M254.15,126.102 C390.88,126.102 586,126.102 586,126.102 C586,126.102 586,212.632 586,261.302 " fill="none" id="Package-backto-Type" style="stroke:#181818;stroke-width:1.0;"/><polygon fill="#181818" points="242.15,126.102,248.15,130.102,254.15,126.102,248.15,122.102,242.15,126.102" style="stroke:#181818;stroke-width:1.0;"/></g><!--reverse link Package to Function--><g id="link_Package_Function"><path codeLine="64" d="M125,187.642 C125,240.272 125,298.592 125,342.742 " fill="none" id="Package-backto-Function" style="stroke:#181818;stroke-width:1.0;"/><polygon fill="#181818" points="125,175.642,121,181.642,125,187.642,129,181.642,125,175.642" style="stroke:#181818;stroke-width:1.0;"/></g><!--link IntegerType to Type--><g id="link_IntegerType_Type"><path codeLine="67" d="M435.23,421.602 C483.56,421.602 547,421.602 547,421.602 C547,421.602 547,381.822 547,343.902 " fill="none" id="IntegerType-to-Type" style="stroke:#181818;stroke-width:1.0;"/><polygon fill="none" points="547,325.902,541,343.902,553,343.902,547,325.902" style="stroke:#181818;stroke-width:1.0;"/></g><!--link StructType to Type--><g id="link_StructType_Type"><path codeLine="68" d="M455.15,282.932 C476.6,282.932 481.88,282.932 502.74,282.932 " fill="none" id="StructType-to-Type" style="stroke:#181818;stroke-width:1.0;"/><polygon fill="none" points="520.74,282.932,502.74,276.932,502.74,288.932,520.74,282.932" style="stroke:#181818;stroke-width:1.0;"/></g><!--link Type to StructType--><g id="link_Type_StructType"><path codeLine="80" d="M520.95,304.272 C500.06,304.272 488.73,304.272 467.22,304.272 " fill="none" id="Type-to-StructType" style="stroke:#181818;stroke-width:1.0;"/><polygon fill="none" points="455.22,304.272,461.22,308.272,467.22,304.272,461.22,300.272,455.22,304.272" style="stroke:#181818;stroke-width:1.0;"/></g><!--link FunctionType to Type--><g id="link_FunctionType_Type"><path codeLine="69" d="M434.04,665.602 C505.62,665.602 625,665.602 625,665.602 C625,665.602 625,433.872 625,343.642 " fill="none" id="FunctionType-to-Type" style="stroke:#181818;stroke-width:1.0;"/><polygon fill="none" points="625,325.642,619,343.642,631,343.642,625,325.642" style="stroke:#181818;stroke-width:1.0;"/></g><!--link Type to FunctionType--><g id="link_Type_FunctionType"><path codeLine="77" d="M599,325.702 C599,410.072 599,631.602 599,631.602 C599,631.602 510.52,631.602 446.15,631.602 " fill="none" id="Type-to-FunctionType" style="stroke:#181818;stroke-width:1.0;"/><polygon fill="none" points="434.15,631.602,440.15,635.602,446.15,631.602,440.15,627.602,434.15,631.602" style="stroke:#181818;stroke-width:1.0;"/></g><!--link FloatType to Type--><g id="link_FloatType_Type"><path codeLine="70" d="M416.62,530.602 C471.91,530.602 573,530.602 573,530.602 C573,530.602 573,408.972 573,344.062 " fill="none" id="FloatType-to-Type" style="stroke:#181818;stroke-width:1.0;"/><polygon fill="none" points="573,326.062,567,344.062,579,344.062,573,326.062" style="stroke:#181818;stroke-width:1.0;"/></g><!--link ArrayType to Type--><g id="link_ArrayType_Type"><path codeLine="71" d="M422,164.932 C475.77,164.932 564,164.932 564,164.932 C564,164.932 564,205.352 564,243.462 " fill="none" id="ArrayType-to-Type" style="stroke:#181818;stroke-width:1.0;"/><polygon fill="none" points="564,261.462,570,243.462,558,243.462,564,261.462" style="stroke:#181818;stroke-width:1.0;"/></g><!--link Type to ArrayType--><g id="link_Type_ArrayType"><path codeLine="79" d="M543,261.402 C543,229.782 543,186.272 543,186.272 C543,186.272 482.1,186.272 434.25,186.272 " fill="none" id="Type-to-ArrayType" style="stroke:#181818;stroke-width:1.0;"/><polygon fill="none" points="422.25,186.272,428.25,190.272,434.25,186.272,428.25,182.272,422.25,186.272" style="stroke:#181818;stroke-width:1.0;"/></g><!--link PointerType to Type--><g id="link_PointerType_Type"><path codeLine="72" d="M424.61,65.932 C495.52,65.932 629,65.932 629,65.932 C629,65.932 629,180.712 629,243.462 " fill="none" id="PointerType-to-Type" style="stroke:#181818;stroke-width:1.0;"/><polygon fill="none" points="629,261.462,635,243.462,623,243.462,629,261.462" style="stroke:#181818;stroke-width:1.0;"/></g><!--link Type to PointerType--><g id="link_Type_PointerType"><path codeLine="78" d="M607,261.362 C607,203.332 607,87.272 607,87.272 C607,87.272 502.19,87.272 436.71,87.272 " fill="none" id="Type-to-PointerType" style="stroke:#181818;stroke-width:1.0;"/><polygon fill="#181818" points="424.71,87.272,430.71,91.272,436.71,87.272,430.71,83.272,424.71,87.272" style="stroke:#181818;stroke-width:1.0;"/></g><!--reverse link Function to FunctionType--><g id="link_Function_FunctionType"><path codeLine="75" d="M125,438.142 C125,512.492 125,648.602 125,648.602 C125,648.602 253.93,648.602 328.97,648.602 " fill="none" id="Function-backto-FunctionType" style="stroke:#181818;stroke-width:1.0;"/><polygon fill="#181818" points="125,426.142,121,432.142,125,438.142,129,432.142,125,426.142" style="stroke:#181818;stroke-width:1.0;"/></g><!--SRC=[TLExQiCm5Dtr5RTP0g6UkeKIw5BeKaeIkfGEggBO8hPa96L87qkXTCWVz2iwDD0bxI_8VzJhf-IG6eFHqT6vvrnT3qzimZCEUKg59CIiXCoffXd4MgtpAvbmBIoLZCCP8IbVMh0Aj8WJ2mkXERD2oU1KAYItcvo3qZPH914B3YobnW0JcgMS458lRoXRqPZ34m5y9Ctu68pLGiOLa52JN1-2fR0PGqRpynezXJb2asfpkPQLcGF2PGFN98RxcCOULNbflPNBnbXPikUZ8xN23H63huuQ7dVCKhOydpVH1-x3_RYzsnNlRbzitGwAL_VjVeijk2_tYJk85cy3e0QcMARjd1BISdrWSWojV4Exq9fk_YNLd9dLQsO3aZ1NfVQICkG-A9NMhHKyNPXvtVtoStSVu65gtF0EIgcuPrIOcOWbNmJQHZpYQKmKT3PLD3HrZ1AqjDE-nGdKSQ2DgxvXpIjTtmPysq4SHJKQhDigc2ZC4aNFaveRzC-3FMy1tANocByZZuNNwr7IoQAng3zIfE6gFjoWet1WFBKhxI6V1iiDfn1LltdJ5l87]--></g></svg>